<!-- Generated by IcoMoon.io -->
<svg version="1.1" xmlns="http://www.w3.org/2000/svg" width="28" height="28" viewBox="0 0 1024 1024">
<g id="icomoon-ignore">
</g>
<path fill="#5ee7ff" d="M833.536 390.4c-58.581 0-91.008 43.264-97.877 90.283h196.608c-5.333-44.8-36.992-90.24-98.731-90.24zM737.109 544.768c10.027 49.323 50.901 84.053 108.032 84.053 30.933 0 75.52-11.52 101.717-38.997l50.133 57.6c-45.397 47.36-113.195 60.843-159.573 60.843-112.64 0-200.405-81.323-200.405-196.523 0-108.16 80.811-197.12 194.987-197.12 110.293 0 192 84.48 192 196.437v32.683h-286.848zM460.331 708.181v-242.773c0-41.643-18.56-65.536-57.088-65.536-34.731 0-57.813 24.96-73.259 42.965v266.24h-100.267v-243.2c0-41.643-17.707-65.365-56.235-65.365-34.688 0-58.667 25.003-73.259 42.923v266.24h-100.224v-389.333h100.267v49.067c17.067-19.797 55.552-53.76 115.627-53.76 53.205 0 89.429 22.4 105.685 67.84 22.357-32.512 64-67.84 124.16-67.84 72.533 0 114.773 43.093 114.773 126.379v266.24h-100.395z"></path>
</svg>
